PathFileType	4	(X/Y/Z)	/Users/niels/Desktop/University/Third Semester/Perception and Action/Exam/Gymnastics Motion Tracking/Code for Gym Tracking/Analyzed Data/Webcam_Backflip/id8_2_trajectory_Sports2D/id8_2_trajectory_Sports2D_px_person00.trc
DataRate	CameraRate	NumFrames	NumMarkers	Units	OrigDataRate	OrigDataStartFrame	OrigNumFrames
29.714285714285715	29.714285714285715	8	22	m	29.714285714285715	0	105
Frame#	Time	Hip			RHip			RKnee			RAnkle			RBigToe			RSmallToe			RHeel			LHip			LKnee			LAnkle			LBigToe			LSmallToe			LHeel			Neck			Head			Nose			RShoulder			RElbow			RWrist			LShoulder			LElbow			LWrist		
		X1	Y1	Z1	X2	Y2	Z2	X3	Y3	Z3	X4	Y4	Z4	X5	Y5	Z5	X6	Y6	Z6	X7	Y7	Z7	X8	Y8	Z8	X9	Y9	Z9	X10	Y10	Z10	X11	Y11	Z11	X12	Y12	Z12	X13	Y13	Z13	X14	Y14	Z14	X15	Y15	Z15	X16	Y16	Z16	X17	Y17	Z17	X18	Y18	Z18	X19	Y19	Z19	X20	Y20	Z20	X21	Y21	Z21	X22	Y22	Z22
0	0.0	0.9329661950146508	-0.5493310059763938	0.0	0.9164396182397092	-0.5540680827062013	0.0	0.9920457483003513	-0.7478694856077744	0.0	0.9423846646318107	-0.9488064547838688	0.0	1.027501983460131	-0.9960363061545611	0.0	1.003852441926699	-1.0054946976993122	0.0	0.9140092429292231	-0.9771239441797055	0.0	0.9424382845418687	-0.5564340262576963	0.0	1.0086052405906445	-0.7431402905799473	0.0	0.9518306335352351	-0.9322392404434526	0.0	1.0322272364512692	-0.9700185622182527	0.0	1.0227708233427006	-0.9605590721064656	0.0	0.9258290733846797	-0.9582412417253734	0.0	1.1219895074210728	-0.308276103950337	0.0	1.1904500172467747	-0.2019094294186848	0.0	1.2165047961133642	-0.2822826352116368	0.0	1.065252572733042	-0.3319382396919339	0.0	0.9257446172766316	-0.4218636237396161	0.0	0.8124146564060467	-0.5044841275706937	0.0	1.1030806402061046	-0.34611154653318815	0.0	0.9564936840979914	-0.4408118788319173	0.0	0.8242168149374254	-0.4995842225701433	0.0
1	0.03365384615384615	0.9350940296363592	-0.5621340075376201	0.0	0.920455476382364	-0.5672435235130607	0.0	1.0127960606550126	-0.7549438121172273	0.0	0.9430722356767082	-0.9520370055280624	0.0	1.030113420387356	-0.9970950646681536	0.0	1.0054751331413039	-1.00567246082025	0.0	0.9146229234993276	-0.978138493125645	0.0	0.9505950923179155	-0.5675296764343083	0.0	1.0273593186041494	-0.7496930300150292	0.0	0.9544048616408337	-0.9365624110395957	0.0	1.0348885033219088	-0.9727582429335918	0.0	1.0243348758015882	-0.9640716567475556	0.0	0.9258867284754004	-0.9597946953933703	0.0	1.1097831876373891	-0.31244551969025375	0.0	1.1710221261759721	-0.20325468943613165	0.0	1.2013248864280337	-0.28112277039750344	0.0	1.0564492729530497	-0.34156741985305333	0.0	0.9560300325311692	-0.4557081363544812	0.0	0.893122502099503	-0.5565757365635118	0.0	1.0957546470830888	-0.3519149091542655	0.0	0.9926142139086858	-0.46577213425175895	0.0	0.9128223051627148	-0.542042361184309	0.0
2	0.0673076923076923	0.9379955551978367	-0.5725039815136772	0.0	0.9249757270241203	-0.5779122951034414	0.0	1.0304245463920598	-0.7618587870748929	0.0	0.9439226535714604	-0.9553116171870852	0.0	1.0325652271638774	-0.9983906323302805	0.0	1.0070807548273606	-1.0062420926993463	0.0	0.9153922677061254	-0.9796749051949125	0.0	0.9581531881763696	-0.5766001618612606	0.0	1.0433944950532035	-0.755971014695429	0.0	0.9568053373106385	-0.9404951174179936	0.0	1.03770846336172	-0.9750076224405657	0.0	1.0264019668337574	-0.967082493651388	0.0	0.9261985204542196	-0.96121953665494	0.0	1.0970058329418058	-0.3141229470215927	0.0	1.1513241009744741	-0.20214668654890464	0.0	1.1857436255730145	-0.2779203836949767	0.0	1.0474357546360287	-0.34869331807187703	0.0	0.9897296151937133	-0.4802975232784631	0.0	0.9758514400990479	-0.5897441225626627	0.0	1.0870603457667274	-0.3549888363602924	0.0	1.0279510376819827	-0.48181695019767756	0.0	0.998249154579568	-0.568851601544688	0.0
3	0.10096153846153846	0.9420271759032891	-0.5782317651884789	0.0	0.9303983359144764	-0.5838008849291004	0.0	1.042496379472847	-0.7675852063259461	0.0	0.945110754120103	-0.9581972373478912	0.0	1.034720112071421	-0.9998156975806027	0.0	1.0087552897744003	-1.0071966185915897	0.0	0.9165362237538834	-0.9815108054819629	0.0	0.9644875480740982	-0.5815797562108665	0.0	1.0542581100575121	-0.760951190351955	0.0	0.9588336242236363	-0.9433134777308327	0.0	1.0404833470855177	-0.9763120224421589	0.0	1.0289709545538088	-0.969066399551803	0.0	0.9263930316128294	-0.9620134329195531	0.0	1.0839669831224705	-0.31090844133045303	0.0	1.1322335701511312	-0.19663270158839855	0.0	1.1700935055350066	-0.27096322702634046	0.0	1.0389821587771415	-0.35039645915159434	0.0	1.0279400723987588	-0.4868707728491044	0.0	1.0588122533739677	-0.5889453718445193	0.0	1.075911594747977	-0.3526732470804091	0.0	1.061463398873629	-0.48167473300784874	0.0	1.07528021625347	-0.5673127251049238	0.0
4	0.1346153846153846	0.9469583135644171	-0.5774504145170406	0.0	0.9368468042494854	-0.5830309356066935	0.0	1.0476079129780875	-0.7702352297276883	0.0	0.9468906008754645	-0.9598370187124329	0.0	1.0363970263639533	-1.000873385653211	0.0	1.010556145824019	-1.008010873461206	0.0	0.9184442933406795	-0.9827524998569593	0.0	0.9689590779765986	-0.5805009650859011	0.0	1.0581295612077535	-0.7628959927323476	0.0	0.9603484072552633	-0.9442814295907145	0.0	1.0427652638804006	-0.9764352121968745	0.0	1.0315794549206072	-0.9697060277541787	0.0	0.926171530796671	-0.9616802816406425	0.0	1.0719478260669082	-0.3009499418603389	0.0	1.115729153568521	-0.18556389261323414	0.0	1.15552391319169	-0.2591362895920657	0.0	1.0327150198260064	-0.34389750743836234	0.0	1.0685362484777845	-0.4694661920842004	0.0	1.135759700035019	-0.5475435837315327	0.0	1.0619277917971173	-0.3427372368060562	0.0	1.0918927933058737	-0.46110433806783035	0.0	1.1387516481081135	-0.5310752929196056	0.0
5	0.16826923076923075	0.952277557451755	-0.5686635063975403	0.0	0.944108266719833	-0.5741224443655026	0.0	1.0453796521584027	-0.767653503371068	0.0	0.9495755121839242	-0.9588310263477334	0.0	1.0373227337640323	-1.0006112604265296	0.0	1.0123342293957849	-1.0075475081563536	0.0	0.921643831013903	-0.9819737431566233	0.0	0.9711025850119486	-0.571670355880324	0.0	1.054141830247533	-0.7598053833746601	0.0	0.9613586002812092	-0.9426072801430699	0.0	1.0440793474622607	-0.9752076673513181	0.0	1.0334715414921989	-0.9687865613646879	0.0	0.9261118588608225	-0.9596781765603704	0.0	1.0626042654003354	-0.28313506152853957	0.0	1.1040933310760477	-0.16848227104209282	0.0	1.143619048770695	-0.24173249090210744	0.0	1.0300090596707987	-0.32722611696317	0.0	1.1072065241901419	-0.4271995579948672	0.0	1.1985710058348893	-0.4697680176899174	0.0	1.0462096515208592	-0.323741484803709	0.0	1.1179366658297543	-0.4199597167973342	0.0	1.1862680666241732	-0.4627617110012095	0.0
6	0.20192307692307693	0.9576218878775207	-0.5513172739211818	0.0	0.9517270996635288	-0.5565194801926266	0.0	1.0364305551325856	-0.7583989166564171	0.0	0.9534197284147047	-0.9533863084528408	0.0	1.0372946584352505	-0.9977697748174154	0.0	1.0138309954726952	-1.0043345749770982	0.0	0.9266551899594484	-0.9774424681401233	0.0	0.9710296299237697	-0.5543116569612744	0.0	1.0427609528640132	-0.7501787773985393	0.0	0.9621020948453748	-0.9371177621081308	0.0	1.0440343702469412	-0.9722007866982781	0.0	1.0338145317916787	-0.9658054014893515	0.0	0.9272760228615105	-0.9549993979077819	0.0	1.0571767981929259	-0.2572729436704618	0.0	1.0989922439112494	-0.1456664578844844	0.0	1.1357326002422603	-0.21858494258866965	0.0	1.0310532296093886	-0.2998298824950183	0.0	1.1395702128346306	-0.3646694557379591	0.0	1.2409468812892184	-0.36886725886966876	0.0	1.0315451574103902	-0.2955547254940386	0.0	1.1383019955596598	-0.3627603171403991	0.0	1.217788246232333	-0.37338171295622524	0.0
7	0.23557692307692307	0.9628581012891928	-0.5263436389942134	0.0	0.9591992357761809	-0.5311269196772755	0.0	1.0225658557183832	-0.7422970245023677	0.0	0.9583188231101455	-0.9418543330979134	0.0	1.036198444707639	-0.9910174920462814	0.0	1.0147193462270987	-0.9969719558631006	0.0	0.9335376780949449	-0.9674661223903815	0.0	0.9695324411570091	-0.5291055331113054	0.0	1.0261506222644017	-0.7336183507503692	0.0	0.963004407867148	-0.9263189478919197	0.0	1.042413067195037	-0.966551743113143	0.0	1.0320598369526013	-0.9597270077829695	0.0	0.9303162305594375	-0.9461244043236334	0.0	1.0559461282600067	-0.22436877247941808	0.0	1.100845801776054	-0.11843187218327955	0.0	1.132392734635416	-0.19056341492639425	0.0	1.0348342752330626	-0.2629485550693069	0.0	1.1626294618087245	-0.2902765813383494	0.0	1.260399281160328	-0.26224780981916596	0.0	1.0211475680980673	-0.25959509233769723	0.0	1.1515026851319305	-0.29816965011962143	0.0	1.2333091967408194	-0.27855277690442987	0.0
